<?xml version="1.0" encoding="UTF-8"?>
<svg xmlns="http://www.w3.org/2000/svg" viewBox="0 0 400 230" width="400" height="230" font-family="-apple-system, BlinkMacSystemFont, 'Segoe UI', Roboto, Helvetica, Arial, sans-serif">
<title>iloader’s Apple ID panel with the Sign In button, and the verification code prompt.</title>
<defs><filter id="sh" x="-20%" y="-20%" width="140%" height="160%"><feDropShadow dx="0" dy="6" stdDeviation="8" flood-opacity="0.28"/></filter><clipPath id="wc"><rect x="0.5" y="0.5" width="399" height="229" rx="10"/></clipPath></defs><rect x="0.5" y="0.5" width="399" height="229" rx="10" fill="#2b2b2b"/><g clip-path="url(#wc)"><rect x="0" y="0" width="400" height="30" fill="#363636"/></g><rect x="0.5" y="30" width="399" height="1" fill="#1e1e1e"/><text x="200" y="20" font-size="12" fill="#dedede" font-weight="600" text-anchor="middle">iloader</text><text x="16" y="48" font-size="9" fill="#8a8a8a" font-weight="700">ACCOUNT</text><rect x="16" y="54" width="200" height="158" rx="8" fill="#262626" stroke="#3a3a3a" stroke-width="1"/><text x="30" y="78" font-size="14" fill="#fff" font-weight="700">Apple ID</text><text x="30" y="98" font-size="10" fill="#d4d4d4">Email</text><rect x="30" y="103" width="172" height="20" rx="4" fill="#1f1f1f" stroke="#5a5a5a" stroke-width="1"/><text x="38" y="116.78" font-size="10.5" fill="#f0f0f0">name@icloud.com</text><text x="30" y="136" font-size="10" fill="#d4d4d4">Password</text><rect x="30" y="141" width="172" height="20" rx="4" fill="#1f1f1f" stroke="#5a5a5a" stroke-width="1"/><text x="38" y="154.78" font-size="10.5" fill="#f0f0f0">••••••••••</text><rect x="30" y="174" width="172" height="24" rx="6" fill="#2f6fe4"/><text x="116" y="190.32" font-size="12" fill="#fff" font-weight="600" text-anchor="middle">Sign In</text><rect x="25" y="169" width="182" height="34" rx="9" fill="none" stroke="#3cb8ff" stroke-width="8" opacity="0.25"/><rect x="25" y="169" width="182" height="34" rx="9" fill="none" stroke="#3cb8ff" stroke-width="2.5"/><circle cx="25" cy="169" r="11" fill="#3cb8ff"/><text x="25" y="173.5" font-size="13" fill="#00131f" font-weight="800" text-anchor="middle">1</text><rect x="232" y="66" width="152" height="128" rx="8" fill="#333" stroke="#555" stroke-width="1" filter="url(#sh)"/><text x="308" y="90" font-size="12" fill="#f0f0f0" font-weight="700" text-anchor="middle">Verification code</text><text x="308" y="108" font-size="10" fill="#cfcfcf" text-anchor="middle">Enter the code Apple sent</text><text x="308" y="121" font-size="10" fill="#cfcfcf" text-anchor="middle">to your other devices.</text><rect x="244" y="134" width="18" height="24" rx="4" fill="#1f1f1f" stroke="#5a5a5a" stroke-width="1"/><rect x="266" y="134" width="18" height="24" rx="4" fill="#1f1f1f" stroke="#5a5a5a" stroke-width="1"/><rect x="288" y="134" width="18" height="24" rx="4" fill="#1f1f1f" stroke="#5a5a5a" stroke-width="1"/><rect x="310" y="134" width="18" height="24" rx="4" fill="#1f1f1f" stroke="#5a5a5a" stroke-width="1"/><rect x="332" y="134" width="18" height="24" rx="4" fill="#1f1f1f" stroke="#5a5a5a" stroke-width="1"/><rect x="354" y="134" width="18" height="24" rx="4" fill="#1f1f1f" stroke="#5a5a5a" stroke-width="1"/><rect x="244" y="166" width="128" height="20" rx="5" fill="#2f6fe4"/><text x="308" y="179.96" font-size="11" fill="#fff" font-weight="600" text-anchor="middle">Continue</text><rect x="239" y="161" width="138" height="30" rx="8" fill="none" stroke="#3cb8ff" stroke-width="8" opacity="0.25"/><rect x="239" y="161" width="138" height="30" rx="8" fill="none" stroke="#3cb8ff" stroke-width="2.5"/><circle cx="239" cy="161" r="11" fill="#3cb8ff"/><text x="239" y="165.5" font-size="13" fill="#00131f" font-weight="800" text-anchor="middle">2</text><rect x="0.5" y="0.5" width="399" height="229" rx="10" fill="none" stroke="#505050" stroke-width="1"/>
</svg>
