<?xml version="1.0" encoding="UTF-8"?>
<svg xmlns="http://www.w3.org/2000/svg" viewBox="0 0 380 224" width="380" height="224" font-family="-apple-system, BlinkMacSystemFont, 'Segoe UI', Roboto, Helvetica, Arial, sans-serif">
<title>Sideloadly with the gramX file dropped on the IPA box, your iPhone selected, and your Apple Account typed in.</title>
<defs><filter id="sh" x="-20%" y="-20%" width="140%" height="160%"><feDropShadow dx="0" dy="6" stdDeviation="8" flood-opacity="0.28"/></filter><clipPath id="wc"><rect x="0.5" y="0.5" width="379" height="223" rx="10"/></clipPath></defs><rect x="0.5" y="0.5" width="379" height="223" rx="10" fill="#2b2b2b"/><g clip-path="url(#wc)"><rect x="0" y="0" width="380" height="30" fill="#363636"/></g><rect x="0.5" y="30" width="379" height="1" fill="#1e1e1e"/><text x="190" y="20" font-size="12" fill="#dedede" font-weight="600" text-anchor="middle">Sideloadly!</text><rect x="16" y="46" width="72" height="72" rx="6" fill="#3a3a3a" stroke="#555" stroke-width="1"/><path d="M35 58 h23.8 l10.2 10.2 v32.3 h-34 z" fill="none" stroke="#e6e6e6" stroke-width="1.5" stroke-linecap="round" stroke-linejoin="round"/><path d="M58.8 58 v10.2 h10.2" fill="none" stroke="#e6e6e6" stroke-width="1.5" stroke-linecap="round" stroke-linejoin="round"/><text x="52" y="88.6" font-size="10.2" fill="#e6e6e6" font-weight="800" text-anchor="middle">IPA</text><text x="52" y="132" font-size="9.5" fill="#dcdcdc" text-anchor="middle">gramx-1.1.0.ipa</text><rect x="11" y="41" width="82" height="100" rx="9" fill="none" stroke="#3cb8ff" stroke-width="8" opacity="0.25"/><rect x="11" y="41" width="82" height="100" rx="9" fill="none" stroke="#3cb8ff" stroke-width="2.5"/><circle cx="11" cy="41" r="11" fill="#3cb8ff"/><text x="11" y="45.5" font-size="13" fill="#00131f" font-weight="800" text-anchor="middle">1</text><text x="104" y="57" font-size="12" fill="#d4d4d4">iDevice:</text><rect x="104" y="63" width="196" height="22" rx="4" fill="#1f1f1f" stroke="#5a5a5a" stroke-width="1"/><text x="112" y="78.14" font-size="11.5" fill="#f0f0f0">iPhone (18.6)</text><path d="M286 72 l4 4 l4 -4" fill="none" stroke="#cfcfcf" stroke-width="1.5" stroke-linecap="round" stroke-linejoin="round"/><rect x="306" y="63" width="22" height="22" rx="5" fill="#3c3c3c" stroke="#555" stroke-width="1"/><text x="317" y="78.32" font-size="12" fill="#e8e8e8" font-weight="500" text-anchor="middle"></text><rect x="334" y="63" width="22" height="22" rx="5" fill="#3c3c3c" stroke="#555" stroke-width="1"/><text x="345" y="78.32" font-size="12" fill="#e8e8e8" font-weight="500" text-anchor="middle"></text><rect x="99" y="58" width="206" height="32" rx="8" fill="none" stroke="#3cb8ff" stroke-width="8" opacity="0.25"/><rect x="99" y="58" width="206" height="32" rx="8" fill="none" stroke="#3cb8ff" stroke-width="2.5"/><circle cx="99" cy="58" r="11" fill="#3cb8ff"/><text x="99" y="62.5" font-size="13" fill="#00131f" font-weight="800" text-anchor="middle">2</text><text x="104" y="105" font-size="12" fill="#d4d4d4">Apple account:</text><rect x="104" y="111" width="252" height="22" rx="4" fill="#1f1f1f" stroke="#5a5a5a" stroke-width="1"/><text x="112" y="126.14" font-size="11.5" fill="#f0f0f0">name@icloud.com</text><rect x="99" y="106" width="262" height="32" rx="8" fill="none" stroke="#3cb8ff" stroke-width="8" opacity="0.25"/><rect x="99" y="106" width="262" height="32" rx="8" fill="none" stroke="#3cb8ff" stroke-width="2.5"/><circle cx="99" cy="106" r="11" fill="#3cb8ff"/><text x="99" y="110.5" font-size="13" fill="#00131f" font-weight="800" text-anchor="middle">3</text><rect x="104" y="143" width="252" height="20" rx="5" fill="#3c3c3c" stroke="#555" stroke-width="1"/><text x="230" y="157.32" font-size="12" fill="#e8e8e8" font-weight="500" text-anchor="middle">Advanced options</text><rect x="16" y="176" width="348" height="22" rx="5" fill="#3c3c3c" stroke="#555" stroke-width="1"/><text x="190" y="191.32" font-size="12" fill="#e8e8e8" font-weight="500" text-anchor="middle">Start</text><text x="190" y="214" font-size="11" fill="#dcdcdc" text-anchor="middle">Idle.</text><rect x="0.5" y="0.5" width="379" height="223" rx="10" fill="none" stroke="#505050" stroke-width="1"/>
</svg>
